<svg xmlns="http://www.w3.org/2000/svg" version="1.1" xmlns:xlink="http://www.w3.org/1999/xlink" viewBox="0 0 200 200"><rect width="200" height="200" fill="url('#gradient')"></rect><defs><linearGradient id="gradient" gradientTransform="rotate(45 0.5 0.5)"><stop offset="0%" stop-color="#002f46"></stop><stop offset="100%" stop-color="#25a9c3"></stop></linearGradient></defs><g><g fill="#ffffff" transform="matrix(1.6741144414168938,0,0,1.6741144414168938,15.413024615737989,108.420092335319)" stroke="#ffffff" stroke-width="0.2"><path d="M12.24-14.22L12.24-11.57L7.97-11.57L7.97 0L4.54 0L4.54-11.57L0.35-11.57L0.35-14.22L12.24-14.22ZM11.09-4.82L11.08-5.38Q11.08-6.96 11.70-8.20Q12.31-9.43 13.47-10.10Q14.62-10.76 16.17-10.76L16.17-10.76Q18.54-10.76 19.91-9.29Q21.28-7.82 21.28-5.29L21.28-5.29L21.28-5.18Q21.28-2.71 19.91-1.25Q18.54 0.20 16.19 0.20L16.19 0.20Q13.94 0.20 12.57-1.16Q11.20-2.51 11.09-4.82L11.09-4.82ZM14.38-5.77L14.38-5.18Q14.38-3.71 14.83-3.03Q15.29-2.34 16.19-2.34L16.19-2.34Q17.95-2.34 17.99-5.05L17.99-5.05L17.99-5.38Q17.99-8.22 16.17-8.22L16.17-8.22Q14.52-8.22 14.38-5.77L14.38-5.77ZM32.54-5.36L32.54-5.21Q32.54-2.74 31.43-1.27Q30.32 0.20 28.44 0.20L28.44 0.20Q26.98 0.20 26.04-0.87L26.04-0.87L26.04 4.06L22.75 4.06L22.75-10.57L25.83-10.57L25.93-9.59Q26.88-10.76 28.42-10.76L28.42-10.76Q30.37-10.76 31.46-9.32Q32.54-7.88 32.54-5.36L32.54-5.36ZM29.25-5.06L29.25-5.41Q29.25-8.22 27.61-8.22L27.61-8.22Q26.44-8.22 26.04-7.38L26.04-7.38L26.04-3.22Q26.47-2.34 27.63-2.34L27.63-2.34Q29.20-2.34 29.25-5.06L29.25-5.06ZM39.10 0.20L39.10 0.20Q36.67 0.20 35.17-1.25Q33.66-2.71 33.66-5.03L33.66-5.03L33.66-5.30Q33.66-6.92 34.26-8.16Q34.86-9.40 36.02-10.08Q37.17-10.76 38.75-10.76L38.75-10.76Q40.98-10.76 42.27-9.38Q43.55-8.00 43.55-5.53L43.55-5.53L43.55-4.25L37.01-4.25Q37.19-3.36 37.78-2.85Q38.38-2.34 39.33-2.34L39.33-2.34Q40.89-2.34 41.77-3.44L41.77-3.44L43.27-1.66Q42.66-0.81 41.53-0.31Q40.40 0.20 39.10 0.20ZM38.73-8.22L38.73-8.22Q37.29-8.22 37.01-6.31L37.01-6.31L40.33-6.31L40.33-6.56Q40.35-7.35 39.93-7.79Q39.51-8.22 38.73-8.22ZM44.81-10.57L47.90-10.57L48.01-9.33Q49.10-10.76 51.03-10.76L51.03-10.76Q52.68-10.76 53.49-9.78Q54.31-8.79 54.34-6.81L54.34-6.81L54.34 0L51.04 0L51.04-6.67Q51.04-7.47 50.71-7.85Q50.39-8.22 49.54-8.22L49.54-8.22Q48.57-8.22 48.11-7.46L48.11-7.46L48.11 0L44.81 0L44.81-10.57ZM55.77-5.24L55.77-5.36Q55.77-6.96 56.30-8.19Q56.83-9.42 57.81-10.09Q58.80-10.76 60.11-10.76L60.11-10.76Q61.76-10.76 62.69-9.65L62.69-9.65L62.80-10.57L65.79-10.57L65.79-0.40Q65.79 1.00 65.14 2.03Q64.49 3.06 63.26 3.61Q62.03 4.16 60.41 4.16L60.41 4.16Q59.25 4.16 58.16 3.72Q57.07 3.28 56.49 2.58L56.49 2.58L57.87 0.64Q58.79 1.73 60.29 1.73L60.29 1.73Q62.48 1.73 62.48-0.52L62.48-0.52L62.48-0.85Q61.53 0.20 60.09 0.20L60.09 0.20Q58.15 0.20 56.96-1.28Q55.77-2.76 55.77-5.24L55.77-5.24ZM59.07-5.16L59.07-5.16Q59.07-3.86 59.56-3.10Q60.05-2.34 60.93-2.34L60.93-2.34Q61.99-2.34 62.48-3.06L62.48-3.06L62.48-7.50Q62.00-8.22 60.95-8.22L60.95-8.22Q60.07-8.22 59.57-7.44Q59.07-6.65 59.07-5.16ZM72.49 0L67.81 0L67.81-14.22L72.39-14.22Q74.28-14.22 75.78-13.36Q77.29-12.51 78.13-10.95Q78.97-9.39 78.98-7.46L78.98-7.46L78.98-6.81Q78.98-4.85 78.16-3.31Q77.33-1.76 75.83-0.88Q74.34-0.01 72.49 0L72.49 0ZM72.39-11.57L71.24-11.57L71.24-2.64L72.43-2.64Q73.91-2.64 74.70-3.69Q75.49-4.74 75.49-6.81L75.49-6.81L75.49-7.42Q75.49-9.48 74.70-10.53Q73.91-11.57 72.39-11.57L72.39-11.57ZM85.70 0.20L85.70 0.20Q83.27 0.20 81.77-1.25Q80.26-2.71 80.26-5.03L80.26-5.03L80.26-5.30Q80.26-6.92 80.86-8.16Q81.46-9.40 82.62-10.08Q83.77-10.76 85.35-10.76L85.35-10.76Q87.58-10.76 88.87-9.38Q90.16-8.00 90.16-5.53L90.16-5.53L90.16-4.25L83.61-4.25Q83.79-3.36 84.38-2.85Q84.98-2.34 85.93-2.34L85.93-2.34Q87.49-2.34 88.37-3.44L88.37-3.44L89.87-1.66Q89.26-0.81 88.13-0.31Q87.00 0.20 85.70 0.20ZM85.33-8.22L85.33-8.22Q83.89-8.22 83.61-6.31L83.61-6.31L86.93-6.31L86.93-6.56Q86.95-7.35 86.53-7.79Q86.11-8.22 85.33-8.22ZM93.93-10.57L95.57-3.92L97.24-10.57L100.70-10.57L97.26 0L93.90 0L90.45-10.57L93.93-10.57Z"></path></g></g></svg>